<?xml version="1.0" encoding="UTF-8"?>
<svg version="1.1" xmlns="http://www.w3.org/2000/svg" width="62" height="65">
<path d="M0 0 C1.58433618 3.06965135 1.36248449 5.55431143 1 8.9375 C-1.13520765 11.77263623 -2.95807944 12.40086629 -6.40454102 12.9206543 C-7.73721764 13.1305323 -7.73721764 13.1305323 -9.09681702 13.34465027 C-10.05615646 13.48228287 -11.01549591 13.61991547 -12.00390625 13.76171875 C-12.99696274 13.91284622 -13.99001923 14.06397369 -15.01316833 14.21968079 C-17.11799977 14.53723375 -19.22375788 14.84869503 -21.33032227 15.15454102 C-24.527989 15.61997676 -27.72195641 16.1061893 -30.91601562 16.59570312 C-32.96595921 16.9022921 -35.01608456 17.20766868 -37.06640625 17.51171875 C-38.01157608 17.65542404 -38.95674591 17.79912933 -39.93055725 17.94718933 C-56.18715341 20.27649561 -56.18715341 20.27649561 -59.7580719 17.63896179 C-61.82149467 14.81203888 -61.36077135 12.30469924 -61 8.9375 C-59.4343011 6.83589893 -58.39426574 6.0535117 -55.87080383 5.31098938 C-55.04888046 5.19329697 -54.22695709 5.07560455 -53.38012695 4.9543457 C-52.44517899 4.81442703 -51.51023102 4.67450836 -50.54695129 4.53034973 C-49.53759018 4.39271713 -48.52822906 4.25508453 -47.48828125 4.11328125 C-46.44608932 3.96215378 -45.4038974 3.81102631 -44.3301239 3.65531921 C-42.12270041 3.33777756 -39.9143951 3.02631579 -37.70532227 2.72045898 C-34.34112227 2.25396885 -30.9801317 1.76831627 -27.61914062 1.27929688 C-25.47151674 0.97281694 -23.3237347 0.66744285 -21.17578125 0.36328125 C-20.17654129 0.21957596 -19.17730133 0.07587067 -18.14778137 -0.07218933 C-3.83340643 -2.03649716 -3.83340643 -2.03649716 0 0 Z " fill="#FF8938" transform="translate(61,16.0625)"/>
<path d="M0 0 C1.81782494 2.77457491 1.71600434 4.57541093 1.1875 7.8125 C-2.63380318 11.7397982 -6.38069931 12.64100349 -11.640625 13.296875 C-12.38906677 13.40219543 -13.13750854 13.50751587 -13.90863037 13.61602783 C-15.48769453 13.83510372 -17.0678486 14.04644713 -18.64892578 14.25048828 C-21.04335876 14.56002554 -23.43357492 14.89302984 -25.82421875 15.23046875 C-41.47935541 17.39326872 -41.47935541 17.39326872 -47.8125 16.8125 C-50.33784006 14.82217729 -50.76243882 14.14862508 -51.25 10.875 C-50.69367829 6.980748 -49.93593213 6.1766747 -46.8125 3.8125 C-43.87120058 2.89387973 -40.89599427 2.48763741 -37.84765625 2.07421875 C-36.54217079 1.87938652 -36.54217079 1.87938652 -35.21031189 1.68061829 C-33.3732063 1.40995962 -31.53489568 1.14737312 -29.69555664 0.89233398 C-26.8856803 0.50148561 -24.08076207 0.08396049 -21.27539062 -0.33789062 C-19.48720903 -0.5979397 -17.69880353 -0.85645478 -15.91015625 -1.11328125 C-15.07355972 -1.23713699 -14.2369632 -1.36099274 -13.37501526 -1.48860168 C-4.18334447 -2.7408119 -4.18334447 -2.7408119 0 0 Z " fill="#FF8938" transform="translate(55.8125,33.1875)"/>
<path d="M0 0 C2 3 2 3 1.875 6 C0.84422037 9.53410158 0.06824629 10.1168259 -3 12 C-6.41554581 12.98435516 -9.91997116 13.38585488 -13.4375 13.875 C-14.37916016 14.0296875 -15.32082031 14.184375 -16.29101562 14.34375 C-23.17307514 15.33453344 -23.17307514 15.33453344 -27.08984375 13.75 C-29 12 -29 12 -30.125 9.125 C-30 6 -30 6 -28.08203125 3.42578125 C-24.0165388 0.22594499 -20.59929159 -0.27445815 -15.5625 -0.9375 C-14.72912109 -1.07478516 -13.89574219 -1.21207031 -13.03710938 -1.35351562 C-8.18372996 -2.06329838 -4.53367621 -2.24932004 0 0 Z " fill="#FF8938" transform="translate(45,50)"/>
<path d="M0 0 C3 0.5 3 0.5 5.375 1.8125 C7.97405576 6.11093838 7.30405549 10.60132815 7 15.5 C5.60582227 15.84019152 4.20955342 16.17181779 2.8125 16.5 C2.03519531 16.685625 1.25789063 16.87125 0.45703125 17.0625 C-2.07990225 17.51422743 -4.42879903 17.57307143 -7 17.5 C-7.10832169 15.41781638 -7.18573541 13.33400871 -7.25 11.25 C-7.29640625 10.08984375 -7.3428125 8.9296875 -7.390625 7.734375 C-7 4.5 -7 4.5 -5.171875 2.109375 C-3 0.5 -3 0.5 0 0 Z " fill="#FF8938" transform="translate(31,-0.5)"/>
</svg>
